<?xml version="1.0" encoding="utf-8"?>
<!-- Generator: Adobe Illustrator 24.0.3, SVG Export Plug-In . SVG Version: 6.00 Build 0)  -->
<svg version="1.1" id="Layer_1" xmlns="http://www.w3.org/2000/svg" xmlns:xlink="http://www.w3.org/1999/xlink" x="0px" y="0px"
	 viewBox="0 0 660 300" style="enable-background:new 0 0 660 300;" xml:space="preserve">
<style type="text/css">
	.st0{fill:none;stroke:#000000;stroke-width:5.0873;stroke-linecap:round;stroke-linejoin:round;stroke-miterlimit:10;}
</style>
<g>
	<path d="M532.2,157.61h-22.82L443,224.56v-66.95h-18.07v133.14H443v-42.99l25.68-26.06l41.84,69.04h21.11l-50.02-81.98
		L532.2,157.61z M325.65,278.2c-24.35,0-39.37-16.36-39.37-39.56c0-35.57,30.44-68.47,66.38-68.47c24.35,0,39.56,16.36,39.56,39.56
		C392.22,245.1,361.41,278.2,325.65,278.2 M324.89,294.56c46.6,0,85.78-40.7,85.78-85.98c0-33.09-22.82-54.78-57.25-54.78
		c-46.6,0-85.59,40.51-85.59,86.16C267.82,273.06,290.46,294.56,324.89,294.56 M176.34,278.2c-24.34,0-39.37-16.36-39.37-39.56
		c0-35.57,30.43-68.47,66.38-68.47c24.34,0,39.56,16.36,39.56,39.56C242.91,245.1,212.1,278.2,176.34,278.2 M175.58,294.56
		c46.6,0,85.78-40.7,85.78-85.98c0-33.09-22.82-54.78-57.25-54.78c-46.6,0-85.59,40.51-85.59,86.16
		C118.52,273.06,141.15,294.56,175.58,294.56 M26.27,276.48v-46.03h41.46c14.65,0,24.73,9.32,24.73,23.01
		c0,13.5-10.08,23.02-24.73,23.02H26.27z M26.27,216.57v-44.89h37.47c14.64,0,24.92,9.32,24.92,22.45
		c0,13.12-10.27,22.44-24.92,22.44H26.27z M8.2,290.75h61.62c23.97,0,40.7-14.64,40.7-35.57c0-17.31-12.17-30.05-30.81-32.15
		c15.78-2.47,26.63-14.64,26.63-29.86c0-20.92-16.74-35.57-40.7-35.57H8.2V290.75z"/>
	<path d="M363.57,138.59h18.45v-44.7L433,5.44h-20.54l-39.56,69.24L333.33,5.44H312.6l50.98,88.45V138.59z M242.81,86.47l25.3-65.24
		l25.29,65.24H242.81z M313.57,138.59h18.45L279.9,5.44h-22.82l-52.3,133.14h17.69l14.64-37.66h61.82L313.57,138.59z M118.44,138.59
		h80.99v-15.22h-62.35V5.44h-18.64V138.59z M26.84,75.06V20.28h31.38c16.74,0,28.34,11.22,28.34,27.39
		c0,16.17-11.6,27.39-28.34,27.39H26.84z M8.2,138.59h18.64V89.89h33.09c26.63,0,45.46-17.88,45.46-42.22
		c0-24.16-18.83-42.23-45.46-42.23H8.2V138.59z"/>
</g>
<g>
	<path class="st0" d="M564.03,222.16c0,0,8.06-1.37,14.12-1.92c18.43-1.69,17.25,14.15,5.52,17.02
		c-16.89,4.13-41.84,6.06-41.84-12.68c0-13.41,13.95-20.09,42.16-20.09c-5.16-15.67-4.27-23.88-0.99-33.05
		c3.29-9.17,11.48-14.18,16.76-10.24c5.59,4.17,1.35,11.04,1.35,20.55c0,8.38,2.39,13.93,5.12,18.54c1.47,2.48,3.67,4.14,6.13,2.95
		c2.25-1.09,2.27-3.99,1.59-6.7c-2.32-9.24-2.67-16.36-0.15-23.85c3.04-9.05,10.16-14.53,16.29-10.85
		c5.39,3.23,1.56,11.1,1.56,20.16c0,11.05,9.91,27.18,15.26,33.86c1.61,2.01,2.44,4.53,2.35,7.11l-1.78,49.25
		c-0.12,3.26-2.4,6.05-5.58,6.77c-18.89,4.28-40.7,6.98-66.89,9.45"/>
	<path class="st0" d="M551.43,272.11c-3.64,6.09,3.31,16.69,17.08,16.7c16.81,0.01,25.98-4.62,25.28-13.37
		c-0.28-3.59-2.86-5.42-4.59-6.33"/>
	<path class="st0" d="M545.89,235.09c-1.37,1.01-3.88,4.08-3.65,9.08c0.27,5.77,3.99,11.24,14.68,12.27
		c13.08,1.27,36.27-0.31,37.47-11.47c0.52-4.87-2.68-8.36-4.88-9.74"/>
	<path class="st0" d="M547.7,253.74c0,0-2.58,3.25-2.58,7.05c0,7.18,6.31,12.59,18.17,12.59c13.91,0,29.2-1.54,30.57-11.23
		c0.78-5.58-4.25-8.83-4.25-8.83"/>
</g>
</svg>
